<svg xmlns="http://www.w3.org/2000/svg" viewBox="0 0 48 48">
  <defs>
    <linearGradient id="g" x1="0" y1="0" x2="1" y2="1">
      <stop offset="0" stop-color="#fb923c" />
      <stop offset="1" stop-color="#ea580c" />
    </linearGradient>
  </defs>
  <rect x="2" y="2" width="44" height="44" rx="13" fill="url(#g)" />
  <path d="M9 41 C 20 41, 18 24, 33 16" fill="none" stroke="#fff" stroke-width="2" stroke-linecap="round" stroke-dasharray="2.4 2.8" opacity="0.85" />
  <path d="M33 9.3 c-2.1 0-3.8 1.7-3.8 3.8 0 2.8 3.8 5.9 3.8 5.9 s3.8-3.1 3.8-5.9 c0-2.1-1.7-3.8-3.8-3.8 z" fill="#fff" />
  <circle cx="33" cy="13.1" r="1.5" fill="#ea580c" />
  <g fill="none" stroke="#fff" stroke-width="2" stroke-linecap="round" stroke-linejoin="round">
    <circle cx="14" cy="36" r="2.9" />
    <circle cx="25" cy="36" r="2.9" />
    <path d="M14 36 L16.5 31 H21 L23 36" />
    <path d="M21 31 L24 27 H26.5" />
  </g>
  <rect x="11" y="26.4" width="4.6" height="4.6" rx="1" fill="#fff" />
</svg>
